<svg width="17" height="11" viewBox="0 0 17 11" fill="none" xmlns="http://www.w3.org/2000/svg">
<path d="M8.5 0C4.63636 0 1.33682 2.19439 0 5.29193C1.33682 8.38947 4.63636 10.5839 8.5 10.5839C12.3636 10.5839 15.6632 8.38947 17 5.29193C15.6632 2.19439 12.3636 0 8.5 0ZM8.5 8.81989C6.36727 8.81989 4.63636 7.23936 4.63636 5.29193C4.63636 3.3445 6.36727 1.76398 8.5 1.76398C10.6327 1.76398 12.3636 3.3445 12.3636 5.29193C12.3636 7.23936 10.6327 8.81989 8.5 8.81989ZM8.5 3.17516C7.21727 3.17516 6.18182 4.12065 6.18182 5.29193C6.18182 6.46321 7.21727 7.4087 8.5 7.4087C9.78273 7.4087 10.8182 6.46321 10.8182 5.29193C10.8182 4.12065 9.78273 3.17516 8.5 3.17516Z" fill="#343434"/>
</svg>
