<svg width="20" height="16" viewBox="0 0 20 16" fill="none" xmlns="http://www.w3.org/2000/svg">
<path d="M10.0045 3.36842C12.5148 3.36842 14.5521 5.25474 14.5521 7.57895C14.5521 8.12632 14.4338 8.64 14.2246 9.12L16.8804 11.5789C18.2538 10.5179 19.3361 9.14526 20 7.57895C18.4266 3.88211 14.543 1.26316 9.99545 1.26316C8.72215 1.26316 7.50341 1.47368 6.37563 1.85263L8.34015 3.67158C8.85857 3.47789 9.41337 3.36842 10.0045 3.36842ZM0.909504 1.06947L2.98317 2.98947L3.40155 3.37684C1.89177 4.46316 0.709413 5.91158 0 7.57895C1.57344 11.2758 5.45703 13.8947 10.0045 13.8947C11.4143 13.8947 12.7603 13.6421 13.9882 13.1874L14.3702 13.5411L17.035 16L18.1901 14.9305L2.06457 0L0.909504 1.06947ZM5.93906 5.72632L7.34879 7.03158C7.30332 7.20842 7.27603 7.39368 7.27603 7.57895C7.27603 8.97684 8.49477 10.1053 10.0045 10.1053C10.2046 10.1053 10.4047 10.08 10.5957 10.0379L12.0055 11.3432C11.3961 11.6211 10.7231 11.7895 10.0045 11.7895C7.49432 11.7895 5.45703 9.90316 5.45703 7.57895C5.45703 6.91368 5.63893 6.29053 5.93906 5.72632ZM9.85903 5.06947L12.724 7.72211L12.7422 7.58737C12.7422 6.18947 11.5234 5.06105 10.0136 5.06105L9.85903 5.06947Z" fill="#CBCBCB"/>
</svg>
